<svg xmlns="http://www.w3.org/2000/svg" xml:space="preserve" viewBox="0 315 800 170" data-version="2" role="img" aria-label="Rebuy">
    <path fill="#FFACAC" d="M187 443.49V330.26h76.82q13.13 0 22.84 3.59 9.71 3.59 15.14 11.2 5.42 7.61 5.42 19.51 0 8.05-2.8 13.65t-7.79 9.1q-4.98 3.5-11.46 5.34-6.47 1.84-13.82 2.36l-2.45-1.4q12.25.18 20.12 2.02 7.88 1.83 11.81 6.65 3.94 4.81 3.94 14.26v26.95H281.5v-25.38q0-6.47-2.28-10.06-2.27-3.59-8.14-4.99-5.86-1.4-16.88-1.4h-43.93v41.83Zm23.27-60.03h53.55q9.8 0 14.96-4.72 5.17-4.73 5.17-12.78 0-7.7-5.17-11.72-5.16-4.03-14.96-4.03h-53.55Z"/>
    <rect width="120.22" height="113.23" x="-60.11" y="-56.615" fill="none" rx="0" ry="0" transform="matrix(1 0 0 1 247.61 387.375)"/>
    <path fill="#FFACAC" d="M407.32 414.61h22.05q-1.4 8.93-7.44 15.93-6.03 7-16.36 11.02-10.32 4.03-25.2 4.03-16.62 0-29.4-5.34-12.77-5.34-19.95-15.49-7.17-10.15-7.17-24.5t7-24.58q7-10.24 19.51-15.67 12.51-5.42 29.31-5.42 17.15 0 28.53 5.42 11.37 5.43 16.88 16.37 5.52 10.93 4.64 27.91h-82.95q.88 6.65 4.99 12.07 4.11 5.43 11.2 8.58 7.09 3.15 16.89 3.15 10.85 0 18.11-3.76 7.26-3.77 9.36-9.72m-28.7-42.7q-12.6 0-20.47 5.52-7.88 5.51-10.15 13.56h59.15q-.88-8.75-8.32-13.91-7.43-5.17-20.21-5.17"/>
    <rect width="106.301" height="91" x="-53.15" y="-45.5" fill="none" rx="0" ry="0" transform="matrix(1 0 0 1 377.5 400.59)"/>
    <path fill="#FFACAC" d="M513.72 445.41q-11.55 0-19.77-4.11-8.23-4.11-13.3-10.85-5.08-6.74-7.53-14.7-2.45-7.96-2.45-15.66 0-9.63 2.36-17.85 2.37-8.23 7.44-14.44 5.08-6.21 13.3-9.71 8.23-3.5 19.95-3.5 13.48 0 23.89 5.69 10.41 5.68 16.45 15.83 6.04 10.15 6.04 23.98 0 13.47-6.13 23.71-6.12 10.24-16.62 15.93-10.5 5.68-23.63 5.68m-7.35-17.5q9.28 0 16.1-3.5 6.83-3.5 10.59-9.71 3.76-6.21 3.76-14.61 0-12.6-7.96-20.3-7.96-7.7-22.49-7.7-10.15 0-17.67 3.32-7.53 3.33-11.64 9.54-4.11 6.21-4.11 15.14 0 8.22 4.02 14.52 4.03 6.3 11.55 9.8 7.53 3.5 17.85 3.5m-33.42-106.4v99.58q0 5.6-.53 11.99-.52 6.38-1.05 10.41H450.2V321.51Z"/>
    <rect width="109.9" height="123.9" x="-54.95" y="-61.95" fill="none" rx="0" ry="0" transform="matrix(1 0 0 1 505.65 383.96)"/>
    <path fill="#FFACAC" d="M677.52 443.49h-22.75v-86.98h22.75ZM656 401.66l.17 5.95q-.35 2.45-1.75 7.09t-4.29 9.89q-2.88 5.25-7.44 10.06-4.54 4.81-11.19 7.88-6.65 3.06-15.75 3.06-7.18 0-14.09-1.75t-12.51-5.86q-5.61-4.12-8.93-11.12-3.32-7-3.32-17.67v-52.68h22.75v48.83q0 8.4 2.71 13.21 2.71 4.81 7.96 6.74 5.25 1.92 12.43 1.92 9.44 0 16.27-4.11t11.11-10.06q4.29-5.95 5.87-11.38"/>
    <rect width="100.62" height="89.08" x="-50.31" y="-44.54" fill="none" rx="0" ry="0" transform="matrix(1 0 0 1 627.71 401.55)"/>
    <path fill="#FFACAC" d="M688.55 356.51h24.15l37.62 83.48-19.6 3.5Zm106.4 0-60.2 121.98h-23.63l25.72-47.95 33.78-74.03Z"/>
    <rect width="106.4" height="121.98" x="-53.2" y="-60.99" fill="none" rx="0" ry="0" transform="matrix(1 0 0 1 742.25 418)"/>
    <path fill="#FFACAC" d="M46.665 402.829h5.662V382.58c0-11.9-9.684-21.584-21.588-21.584-11.904 0-21.585 9.683-21.585 21.584v20.249h5.66l-7.785 40.894h14.97v29.954h5.916v-29.954h5.916v29.954h5.917v-29.954h14.703zm-15.926-35.918c8.642 0 15.671 7.032 15.671 15.67v20.104H15.069V382.58c0-8.638 7.029-15.668 15.67-15.668"/>
    <path fill="#FFACAC" d="M9.64 362.03c1.86 0 4.562-.304 6.861-1.738a8.025 8.025 0 0 0 3.093-3.498 18.09 18.09 0 0 0 10.917 3.665c10.06 0 18.242-8.185 18.242-18.24.001-10.06-8.181-18.243-18.24-18.243s-18.242 8.184-18.242 18.243a18 18 0 0 0 .327 3.369h-.027c-5.668 0-8.671 6.097-10.285 9.373-.275.555-.498 1.026-.69 1.34l-1.602 2.59 2.637 1.524c1.747 1.011 4.366 1.615 7.01 1.615q-.002 0 0 0m20.872-7.489a12.255 12.255 0 0 1-6.515-1.88c6.52-3.635 11.331-10.317 14.355-19.95a12.315 12.315 0 0 1 4.485 9.506c0 6.797-5.529 12.324-12.325 12.324m0-24.65q1.269.002 2.469.251c-1.467 5.148-4.884 14.272-13.237 18.053a12.225 12.225 0 0 1-1.557-5.976c.001-6.797 5.529-12.327 12.325-12.327m-17.89 21.615c.492.012 1.785.05 1.815 1.721 0 .978-.311 1.57-1.07 2.045-.856.534-2.214.843-3.727.843h-.002q-.666-.001-1.272-.069c1.08-2.04 2.661-4.54 4.256-4.54m115.85 66.983c-1.503-17.305-16.051-30.937-33.742-30.937h-2.958v30.938H61.182a3.382 3.382 0 0 0 .953-2.352 3.392 3.392 0 1 0-3.393 3.394c.796 0 1.519-.285 2.098-.744v2.66c0 14.758 9.501 27.311 22.695 31.951-.282-.022-.556-.084-.843-.084-5.72 0-10.372 4.652-10.372 10.367 0 5.72 4.654 10.374 10.372 10.374 5.72 0 10.371-4.655 10.371-10.375 0-3.98-2.286-7.408-5.589-9.144 2.34.515 4.762.803 7.257.803a33.75 33.75 0 0 0 7.259-.803c-3.303 1.738-5.59 5.163-5.59 9.144 0 5.721 4.655 10.375 10.373 10.375 5.718 0 10.371-4.655 10.371-10.375 0-5.714-4.654-10.366-10.371-10.366-.29 0-.562.06-.845.084 13.193-4.64 22.694-17.193 22.694-31.951v-2.959zM82.69 468.14a4.46 4.46 0 0 1-4.454-4.457 4.455 4.455 0 1 1 4.455 4.458m28.539-4.459a4.461 4.461 0 0 1-4.456 4.458 4.461 4.461 0 0 1-4.456-4.457 4.455 4.455 0 0 1 8.912 0m-44.321-39.277h55.641a27 27 0 0 1-.404 2.632c-.047.235-.12.462-.174.695-.15.641-.3 1.283-.492 1.907-.1.322-.225.633-.337.954-.179.514-.354 1.035-.565 1.538-.142.341-.305.67-.461 1.003-.215.464-.426.928-.663 1.38-.181.333-.378.659-.568.986-.25.426-.498.85-.77 1.261-.215.325-.441.635-.668.951-.28.394-.569.78-.866 1.161-.245.304-.501.598-.758.897-.312.357-.634.715-.965 1.057q-.407.425-.835.829a28.5 28.5 0 0 1-3.117 2.572c-.32.227-.639.454-.969.668q-.609.392-1.239.752c-.337.198-.673.395-1.021.575-.434.226-.878.433-1.326.637-.351.164-.7.327-1.06.477-.468.19-.949.357-1.426.524-.358.123-.708.256-1.074.364-.508.154-1.032.276-1.554.4-.352.084-.696.184-1.05.256-.585.115-1.183.192-1.777.273-.306.038-.605.095-.912.126-.911.091-1.835.144-2.768.144-14.425.002-26.34-10.977-27.822-25.019"/>
</svg>
